<?xml version="1.0" standalone="no"?>
<!DOCTYPE svg PUBLIC "-//W3C//DTD SVG 20010904//EN"
 "http://www.w3.org/TR/2001/REC-SVG-20010904/DTD/svg10.dtd">
<svg version="1.0" xmlns="http://www.w3.org/2000/svg"
 width="120.000000pt" height="44.000000pt" viewBox="0 0 120.000000 44.000000"
 preserveAspectRatio="xMidYMid meet">

<g transform="translate(0.000000,44.000000) scale(0.100000,-0.100000)"
fill="#000000" stroke="none">
<path d="M0 360 c0 -63 3 -80 14 -80 22 0 28 -17 15 -41 -9 -17 -13 -19 -20
-8 -5 9 -9 -34 -9 -108 l0 -123 600 0 600 0 0 220 0 220 -600 0 -600 0 0 -80z
m562 -20 c-4 -40 -4 -40 -46 -40 l-41 0 0 40 0 40 45 0 46 0 -4 -40z m268 6
c0 -19 5 -38 11 -41 17 -11 20 0 10 29 -9 23 -8 26 9 26 11 0 20 -6 20 -12 0
-9 3 -8 10 2 17 27 20 4 5 -33 -10 -25 -22 -37 -35 -37 -11 0 -20 4 -20 9 0 6
-17 11 -37 13 -31 2 -39 7 -41 26 -3 17 2 25 17 29 12 3 21 9 21 14 0 5 7 9
15 9 10 0 15 -10 15 -34z m125 17 c6 -17 7 -17 16 0 18 32 39 20 39 -23 0 -33
-3 -40 -20 -40 -14 0 -18 5 -14 18 5 14 4 14 -6 -2 -10 -15 -14 -16 -21 -5 -6
10 -9 11 -9 2 0 -7 -6 -13 -12 -13 -8 0 -13 15 -13 40 0 30 4 40 16 40 9 0 20
-8 24 -17z m-320 -33 c0 -21 -5 -25 -30 -25 -33 0 -48 30 -23 46 25 17 53 6
53 -21z m86 18 c0 -10 2 -10 6 0 2 6 11 12 19 12 12 0 12 -4 -1 -30 -17 -32
-30 -38 -39 -17 -5 10 -7 10 -12 0 -9 -21 -22 -15 -39 17 l-16 30 41 0 c25 0
40 -5 41 -12z m359 -8 c0 -11 4 -20 9 -20 5 0 8 8 7 18 -1 12 8 18 28 20 30 4
46 -10 46 -40 0 -15 -11 -17 -75 -17 -69 0 -96 12 -60 25 8 4 15 10 15 15 0 4
-7 5 -17 2 -11 -4 -14 -3 -9 5 4 7 18 12 32 12 17 0 24 -5 24 -20z m-820 -10
c0 -5 -7 -10 -15 -10 -8 0 -15 5 -15 10 0 6 7 10 15 10 8 0 15 -4 15 -10z
m148 -82 c-4 -27 -28 -36 -28 -10 0 20 8 32 22 32 5 0 8 -10 6 -22z m37 2 c0
-7 -6 -15 -12 -17 -8 -3 -13 4 -13 17 0 13 5 20 13 18 6 -3 12 -11 12 -18z
m-238 -7 c3 -7 -4 -9 -16 -6 -12 3 -18 9 -15 15 7 11 26 6 31 -9z m-127 -3 c0
-5 -4 -10 -10 -10 -5 0 -10 5 -10 10 0 6 5 10 10 10 6 0 10 -4 10 -10z m205 0
c-3 -5 -13 -10 -21 -10 -8 0 -14 5 -14 10 0 6 9 10 21 10 11 0 17 -4 14 -10z
m401 -43 c3 -9 16 -12 34 -9 25 4 30 1 30 -17 0 -11 4 -21 9 -21 5 0 8 8 7 17
-1 16 10 18 82 20 46 1 82 -2 82 -7 0 -6 10 -5 24 2 34 15 58 4 54 -24 -3 -22
-8 -23 -95 -26 -87 -3 -91 -2 -86 18 3 11 1 20 -5 20 -5 0 -9 -8 -8 -17 1 -15
-9 -18 -61 -20 -59 -3 -84 10 -48 23 8 4 15 10 15 16 0 5 -5 6 -10 3 -6 -4
-24 1 -41 9 -29 15 -30 14 -27 -7 2 -14 9 -21 21 -21 26 3 15 -20 -12 -24 -41
-6 -67 38 -39 66 16 16 67 15 74 -1z m161 7 c-3 -3 -12 -4 -19 -1 -8 3 -5 6 6
6 11 1 17 -2 13 -5z m-454 -31 c-13 -2 -35 -2 -50 0 -16 2 -5 4 22 4 28 0 40
-2 28 -4z m57 3 c0 -3 -4 -8 -10 -11 -5 -3 -10 -1 -10 4 0 6 5 11 10 11 6 0
10 -2 10 -4z"/>
<path d="M510 360 c0 -5 5 -10 10 -10 6 0 10 5 10 10 0 6 -4 10 -10 10 -5 0
-10 -4 -10 -10z"/>
<path d="M510 325 c0 -8 5 -15 10 -15 6 0 10 7 10 15 0 8 -4 15 -10 15 -5 0
-10 -7 -10 -15z"/>
<path d="M601 334 c0 -11 3 -14 6 -6 3 7 2 16 -1 19 -3 4 -6 -2 -5 -13z"/>
<path d="M971 164 c0 -11 3 -14 6 -6 3 7 2 16 -1 19 -3 4 -6 -2 -5 -13z"/>
</g>
</svg>
